<svg xmlns="http://www.w3.org/2000/svg" xml:space="preserve" width="135px" version="1.1"
                    style="shape-rendering:geometricPrecision; text-rendering:geometricPrecision; image-rendering:optimizeQuality; fill-rule:evenodd; clip-rule:evenodd"
                    viewBox="0 0 299.79 43.82">
                    <path class="text-primary-600 dark:text-primary-500" fill="currentColor"
                        d="M295.28 0.92l3.57 3.49c1.25,1.23 1.26,3.26 0.01,4.5l-32.43 32.22c-3.38,3.35 -5.59,3.68 -8.97,0.37l-13.19 -12.89c-1.26,-1.23 -1.26,-3.26 -0.02,-4.5l2.79 -2.76c1.24,-1.24 3.29,-1.24 4.55,-0.02l7.83 7.58c1.63,1.58 2.9,0.49 4.41,-1.03l26.9 -26.94c1.24,-1.24 3.3,-1.24 4.55,-0.02z">
                    </path>
                    <path fill="currentColor"
                        d="M15.93 43.82c-3.02,0 -5.74,-0.65 -8.16,-1.94 -2.41,-1.29 -4.31,-3.13 -5.7,-5.53 -1.38,-2.4 -2.07,-5.2 -2.07,-8.41 0,-3.17 0.7,-5.97 2.1,-8.38 1.4,-2.42 3.32,-4.27 5.76,-5.56 2.43,-1.29 5.16,-1.94 8.18,-1.94 3.03,0 5.76,0.65 8.19,1.94 2.44,1.29 4.36,3.14 5.76,5.56 1.4,2.41 2.1,5.21 2.1,8.38 0,3.17 -0.71,5.97 -2.13,8.38 -1.42,2.42 -3.36,4.27 -5.81,5.56 -2.45,1.29 -5.19,1.94 -8.22,1.94zm0 -8.19c1.81,0 3.35,-0.66 4.62,-1.99 1.28,-1.33 1.91,-3.23 1.91,-5.7 0,-2.47 -0.62,-4.37 -1.85,-5.7 -1.24,-1.33 -2.76,-1.99 -4.57,-1.99 -1.84,0 -3.37,0.65 -4.59,1.96 -1.21,1.31 -1.82,3.22 -1.82,5.73 0,2.47 0.6,4.37 1.79,5.7 1.2,1.33 2.71,1.99 4.51,1.99zm40.06 7.75l-9.4 -12.95 0 12.95 -9.47 0 0 -40.95 9.47 0 0 22.63 9.35 -12.56 11.67 0 -12.84 15.5 12.95 15.38 -11.73 0zm44.43 -15.94c0,0.89 -0.06,1.81 -0.17,2.77l-21.41 0c0.15,1.92 0.77,3.38 1.85,4.4 1.09,1.01 2.43,1.52 4.02,1.52 2.36,0 4,-1 4.92,-2.99l10.07 0c-0.52,2.03 -1.45,3.86 -2.8,5.48 -1.34,1.62 -3.03,2.89 -5.06,3.82 -2.03,0.92 -4.29,1.38 -6.8,1.38 -3.03,0 -5.72,-0.65 -8.08,-1.94 -2.36,-1.29 -4.21,-3.13 -5.53,-5.53 -1.33,-2.4 -1.99,-5.2 -1.99,-8.41 0,-3.21 0.65,-6.01 1.96,-8.41 1.31,-2.4 3.14,-4.24 5.5,-5.53 2.37,-1.29 5.08,-1.94 8.14,-1.94 2.99,0 5.64,0.63 7.96,1.88 2.33,1.26 4.14,3.05 5.45,5.37 1.31,2.32 1.97,5.03 1.97,8.13zm-9.68 -2.49c0,-1.62 -0.56,-2.91 -1.66,-3.87 -1.11,-0.96 -2.49,-1.44 -4.15,-1.44 -1.59,0 -2.93,0.46 -4.01,1.38 -1.09,0.93 -1.77,2.24 -2.02,3.93l11.84 0zm30.15 -4.59l-5.09 0 0 23.02 -9.46 0 0 -23.02 -3.43 0 0 -7.86 3.43 0 0 -0.88c0,-3.8 1.09,-6.69 3.26,-8.66 2.18,-1.97 5.37,-2.96 9.57,-2.96 0.7,0 1.22,0.02 1.55,0.06l0 8.02c-1.8,-0.11 -3.08,0.15 -3.81,0.77 -0.74,0.63 -1.11,1.75 -1.11,3.38l0 0.27 5.09 0 0 7.86zm18.48 23.46c-3.03,0 -5.75,-0.65 -8.16,-1.94 -2.42,-1.29 -4.32,-3.13 -5.7,-5.53 -1.38,-2.4 -2.08,-5.2 -2.08,-8.41 0,-3.17 0.71,-5.97 2.11,-8.38 1.4,-2.42 3.32,-4.27 5.75,-5.56 2.44,-1.29 5.17,-1.94 8.19,-1.94 3.02,0 5.75,0.65 8.19,1.94 2.43,1.29 4.35,3.14 5.75,5.56 1.4,2.41 2.1,5.21 2.1,8.38 0,3.17 -0.71,5.97 -2.13,8.38 -1.42,2.42 -3.35,4.27 -5.8,5.56 -2.46,1.29 -5.2,1.94 -8.22,1.94zm0 -8.19c1.81,0 3.35,-0.66 4.62,-1.99 1.27,-1.33 1.91,-3.23 1.91,-5.7 0,-2.47 -0.62,-4.37 -1.86,-5.7 -1.23,-1.33 -2.75,-1.99 -4.56,-1.99 -1.84,0 -3.38,0.65 -4.59,1.96 -1.22,1.31 -1.83,3.22 -1.83,5.73 0,2.47 0.6,4.37 1.8,5.7 1.2,1.33 2.7,1.99 4.51,1.99zm30.65 -17.98c1.11,-1.7 2.49,-3.03 4.15,-4.01 1.66,-0.98 3.5,-1.47 5.53,-1.47l0 10.02 -2.6 0c-2.36,0 -4.13,0.5 -5.31,1.52 -1.18,1.01 -1.77,2.79 -1.77,5.34l0 14.33 -9.46 0 0 -30.88 9.46 0 0 5.15zm53.61 -5.48c3.84,0 6.89,1.16 9.16,3.49 2.27,2.32 3.4,5.55 3.4,9.68l0 18.04 -9.4 0 0 -16.77c0,-1.99 -0.53,-3.53 -1.58,-4.62 -1.05,-1.09 -2.5,-1.63 -4.34,-1.63 -1.85,0 -3.3,0.54 -4.35,1.63 -1.05,1.09 -1.57,2.63 -1.57,4.62l0 16.77 -9.41 0 0 -16.77c0,-1.99 -0.53,-3.53 -1.58,-4.62 -1.05,-1.09 -2.5,-1.63 -4.34,-1.63 -1.84,0 -3.29,0.54 -4.34,1.63 -1.05,1.09 -1.58,2.63 -1.58,4.62l0 16.77 -9.46 0 0 -30.88 9.46 0 0 3.88c0.96,-1.29 2.21,-2.32 3.76,-3.07 1.55,-0.76 3.3,-1.14 5.26,-1.14 2.32,0 4.4,0.5 6.22,1.5 1.83,0.99 3.26,2.41 4.29,4.26 1.07,-1.7 2.53,-3.08 4.37,-4.15 1.85,-1.07 3.86,-1.61 6.03,-1.61z">
                    </path>
                </svg>